<svg width="49" height="48" viewBox="0 0 49 48" fill="none" xmlns="http://www.w3.org/2000/svg">
<g clip-path="url(#clip0_10103_6)" filter="url(#filter0_d_10103_6)">
<path d="M43.9028 37.3868L42.2052 31.3966C41.8706 30.2162 41.9314 28.9536 42.4121 27.8249C43.5256 25.2116 44.0975 22.3154 43.988 19.2731C43.6108 8.71024 34.9281 0.191838 24.3622 0.00321611C13.0297 -0.197575 3.80243 9.02968 4.00322 20.3622C4.19184 30.9281 12.7102 39.6108 23.27 39.988C25.929 40.0823 28.4754 39.6564 30.821 38.8046C32.6889 38.1261 34.7182 38.0105 36.6287 38.5551L41.3808 39.9059C42.9171 40.3439 44.3379 38.9232 43.9028 37.3868ZM15.065 20.0002C15.065 15.0656 19.0656 11.065 24.0002 11.065C28.9348 11.065 32.9354 15.0656 32.9354 20.0002C32.9354 24.9348 28.9348 28.9354 24.0002 28.9354C19.0656 28.9354 15.065 24.9348 15.065 20.0002Z" fill="url(#paint0_linear_10103_6)"/>
<path d="M41.8922 29.0208C41.8922 29.0208 41.8222 28.7987 41.6853 28.4032C40.6205 25.3853 35.4425 12.3186 25.2052 11.1504C29.5709 11.7376 32.9357 15.4765 32.9357 20.0004C32.9357 24.935 28.9351 28.9356 24.0005 28.9356V39.9974C26.3948 39.9974 28.6917 39.5806 30.8213 38.8078C32.6893 38.1294 34.7185 38.0138 36.629 38.5584L41.3811 39.9091C42.9174 40.3442 44.3382 38.9265 43.9031 37.3871L42.2055 31.3968C42.0048 30.694 41.95 29.9578 42.0382 29.2429L41.8922 29.0208Z" fill="url(#paint1_linear_10103_6)"/>
</g>
<defs>
<filter id="filter0_d_10103_6" x="0" y="0" width="48.0015" height="48.001" filterUnits="userSpaceOnUse" color-interpolation-filters="sRGB">
<feFlood flood-opacity="0" result="BackgroundImageFix"/>
<feColorMatrix in="SourceAlpha" type="matrix" values="0 0 0 0 0 0 0 0 0 0 0 0 0 0 0 0 0 0 127 0" result="hardAlpha"/>
<feOffset dy="4"/>
<feGaussianBlur stdDeviation="2"/>
<feComposite in2="hardAlpha" operator="out"/>
<feColorMatrix type="matrix" values="0 0 0 0 0 0 0 0 0 0 0 0 0 0 0 0 0 0 0.25 0"/>
<feBlend mode="normal" in2="BackgroundImageFix" result="effect1_dropShadow_10103_6"/>
<feBlend mode="normal" in="SourceGraphic" in2="effect1_dropShadow_10103_6" result="shape"/>
</filter>
<linearGradient id="paint0_linear_10103_6" x1="8.85223" y1="1.35995e-05" x2="44.3757" y2="2.97043" gradientUnits="userSpaceOnUse">
<stop stop-color="#DF5950"/>
<stop offset="1" stop-color="#451046"/>
</linearGradient>
<linearGradient id="paint1_linear_10103_6" x1="26.4244" y1="11.1504" x2="44.2341" y2="12.182" gradientUnits="userSpaceOnUse">
<stop stop-color="#DF5950"/>
<stop offset="1" stop-color="#451046"/>
</linearGradient>
<clipPath id="clip0_10103_6">
<rect width="40.0013" height="40.0009" fill="white" transform="translate(4)"/>
</clipPath>
</defs>
</svg>
